@startuml DomainModelExcerpt

skinparam linetype ortho


'========================================================
rectangle #36827F{
class Building  << Root >> << Entity >>
class BuildingDescription  << (v,#A4C2E5) ValueObject >>
class BuildingName  << (v,#A4C2E5) ValueObject >>
class BuildingCode  << (v,orange) ValueObject >> << unique >>
class BuildingSize  << (v,#A4C2E5) ValueObject >>
}
'========================================================
rectangle #EDB182{
class Passageway  << Root >> << Entity >>
class PassagewayId  << (v,orange) ValueObject >> << unique >>
}
'========================================================
rectangle #D499B9{
class Floor  << Root >> << Entity >>
class FloorId  << (v,orange) ValueObject >> << unique >>
class FloorDescription  << (v,#A4C2E5) ValueObject >>
class FloorMap  << Entity >>
class FloorNumber << (v,#A4C2E5) ValueObject >>
}

'========================================================

Building "1"->"*" Floor
Building "*"-->"0..1" BuildingDescription
Building "*"-->"1" BuildingSize
Building "1"-->"0..1" BuildingName
Building "1"-->"1" BuildingCode

Passageway "1"-d->"1" PassagewayId

Floor "1"-d->"1" FloorMap
Floor "*"-u>"1" FloorNumber
Floor "*"->"1" FloorDescription
Floor "1" -> "1" FloorId

FloorMap "2"--->"0..*" Passageway

@enduml
